<?xml version="1.0" standalone="no"?>
<!DOCTYPE svg PUBLIC "-//W3C//DTD SVG 20010904//EN"
 "http://www.w3.org/TR/2001/REC-SVG-20010904/DTD/svg10.dtd">
<svg version="1.0" xmlns="http://www.w3.org/2000/svg"
 width="700.000000pt" height="700.000000pt" viewBox="0 0 700.000000 700.000000"
 preserveAspectRatio="xMidYMid meet">
<metadata>
Created by potrace 1.11, written by Peter Selinger 2001-2013
</metadata>
<g transform="translate(0.000000,700.000000) scale(0.100000,-0.100000)"
fill="#000000" stroke="none">
<path d="M1901 6983 c-19 -10 -44 -31 -55 -46 -20 -27 -21 -43 -23 -304 -2
-152 -5 -278 -8 -281 -3 -3 -132 -6 -288 -7 -241 -1 -288 -4 -321 -19 -88 -38
-147 -105 -170 -192 -9 -38 -12 -351 -12 -1373 l1 -1323 -40 -21 c-41 -21
-182 -105 -200 -119 -5 -4 -39 -29 -75 -55 -78 -57 -267 -245 -331 -328 -139
-181 -251 -401 -309 -608 -21 -78 -24 -90 -36 -157 -4 -19 -8 -44 -11 -55 -19
-94 -24 -382 -10 -503 15 -121 45 -255 81 -357 49 -138 57 -157 101 -243 48
-93 52 -100 103 -174 17 -26 32 -50 32 -53 0 -13 111 -144 186 -221 88 -90
155 -147 259 -221 67 -48 250 -153 265 -153 3 0 13 -12 21 -26 7 -15 35 -46
61 -69 91 -82 -188 -75 2892 -75 2599 0 2754 1 2800 17 58 21 133 89 161 148
20 40 20 77 20 3010 l0 2970 -34 58 c-39 68 -109 120 -186 137 -31 7 -148 10
-310 9 l-260 -3 -1 270 c-2 384 3 377 -258 382 -93 2 -183 1 -201 -2 -43 -8
-95 -57 -104 -98 -4 -18 -7 -149 -7 -290 1 -221 -1 -257 -14 -260 -8 -2 -166
-3 -350 -3 l-335 1 -2 259 c-1 143 -4 274 -7 291 -8 40 -57 90 -97 98 -17 3
-103 6 -191 6 -179 0 -211 -8 -251 -64 -21 -30 -22 -39 -24 -301 -1 -148 -2
-274 -2 -280 -1 -6 -124 -10 -349 -10 l-347 1 -5 286 -5 286 -25 27 c-48 52
-63 55 -263 52 -171 -2 -188 -4 -214 -23 -55 -41 -58 -56 -63 -354 l-5 -275
-335 0 c-184 0 -341 1 -347 3 -10 3 -13 66 -13 271 0 293 -3 311 -63 355 -26
19 -45 21 -210 24 -159 2 -186 0 -216 -15z"/>
</g>
</svg>
